<svg xmlns="http://www.w3.org/2000/svg" xmlns:xlink="http://www.w3.org/1999/xlink" width="42" height="66" viewBox="0 0 42 66"><defs><style>.a{fill:#cf7272;}.b{fill:rgba(0,0,0,0.48);}.c{filter:url(#a);}</style><filter id="a" x="0" y="0" width="42" height="66" filterUnits="userSpaceOnUse"><feOffset dy="3" input="SourceAlpha"/><feGaussianBlur stdDeviation="3" result="b"/><feFlood flood-opacity="0.251"/><feComposite operator="in" in2="b"/><feComposite in="SourceGraphic"/></filter></defs><g transform="translate(-207 -243)"><g class="c" transform="matrix(1, 0, 0, 1, 207, 243)"><path class="a" d="M8,0h8a8,8,0,0,1,8,8V40a8,8,0,0,1-8,8H8a8,8,0,0,1-8-8V8A8,8,0,0,1,8,0Z" transform="translate(9 6)"/></g><rect class="b" width="20" height="30" rx="8" transform="translate(218 261)"/><rect class="a" width="16" height="18" rx="6" transform="translate(220 270)"/></g></svg>